<?xml version="1.0" encoding="utf-8"?>
<!-- Generator: Adobe Illustrator 18.1.0, SVG Export Plug-In . SVG Version: 6.00 Build 0)  -->
<svg version="1.1" id="Layer_1" xmlns="http://www.w3.org/2000/svg" xmlns:xlink="http://www.w3.org/1999/xlink" x="0px" y="0px"
	 viewBox="0 0 100 100" enable-background="new 0 0 100 100" xml:space="preserve">
<g>
	<path fill="#FFFFFF" d="M49.9,73.6c-12.5,0-22.7-10.2-22.7-22.7s10.2-22.7,22.7-22.7c12.5,0,22.7,10.2,22.7,22.7
		S62.5,73.6,49.9,73.6z M49.9,33.5c-9.6,0-17.4,7.8-17.4,17.4s7.8,17.4,17.4,17.4s17.4-7.8,17.4-17.4S59.5,33.5,49.9,33.5z"/>
</g>
<g>
	<circle fill="#FFFFFF" cx="43.2" cy="42.3" r="3.8"/>
</g>
<g>
	<path fill="#FFFFFF" d="M85.2,0H14.7C6.6,0,0,6.6,0,14.7v70.5c0,8.1,6.6,14.7,14.7,14.7h70.5c8.1,0,14.7-6.6,14.7-14.7V14.7
		C99.9,6.6,93.3,0,85.2,0z M81.8,69.5c0,6.9-5.6,12.5-12.5,12.5h-6.5c-2.3,0-4.4,1.1-5.8,2.9l-7.1,9.3l-7.1-9.3
		C41.4,83.1,39.3,82,37,82h-6.5c-6.9,0-12.5-5.6-12.5-12.5V30.7c0-6.6,5.2-12.1,11.7-12.5v-2.6c0-0.4,0.3-0.7,0.7-0.7h9.1
		c0.4,0,0.7,0.3,0.7,0.7v2.6h29c6.9,0,12.5,5.6,12.5,12.5V69.5z"/>
</g>
</svg>
